<mxfile host="app.diagrams.net" agent="Mozilla/5.0 (Windows NT 10.0; Win64; x64; rv:131.0) Gecko/20100101 Firefox/131.0" version="24.7.16">
  <diagram id="prtHgNgQTEPvFCAcTncT" name="Page-1">
    <mxGraphModel dx="1274" dy="695" grid="1" gridSize="10" guides="1" tooltips="1" connect="1" arrows="1" fold="1" page="1" pageScale="1" pageWidth="827" pageHeight="1169" math="0" shadow="0">
      <root>
        <mxCell id="0" />
        <mxCell id="1" parent="0" />
        <mxCell id="bfQukeVcYXhppwxrfOuq-3" style="edgeStyle=orthogonalEdgeStyle;rounded=0;orthogonalLoop=1;jettySize=auto;html=1;exitX=0.5;exitY=1;exitDx=0;exitDy=0;" edge="1" parent="1" source="bfQukeVcYXhppwxrfOuq-1" target="bfQukeVcYXhppwxrfOuq-2">
          <mxGeometry relative="1" as="geometry" />
        </mxCell>
        <mxCell id="bfQukeVcYXhppwxrfOuq-1" value="Début" style="ellipse;whiteSpace=wrap;html=1;" vertex="1" parent="1">
          <mxGeometry x="428" y="155" width="120" height="40" as="geometry" />
        </mxCell>
        <mxCell id="bfQukeVcYXhppwxrfOuq-4" style="edgeStyle=orthogonalEdgeStyle;rounded=0;orthogonalLoop=1;jettySize=auto;html=1;exitX=1;exitY=0.5;exitDx=0;exitDy=0;entryX=0.5;entryY=0;entryDx=0;entryDy=0;" edge="1" parent="1" source="bfQukeVcYXhppwxrfOuq-2" target="bfQukeVcYXhppwxrfOuq-6">
          <mxGeometry relative="1" as="geometry">
            <mxPoint x="570" y="365" as="targetPoint" />
          </mxGeometry>
        </mxCell>
        <mxCell id="bfQukeVcYXhppwxrfOuq-8" style="edgeStyle=orthogonalEdgeStyle;rounded=0;orthogonalLoop=1;jettySize=auto;html=1;exitX=0;exitY=0.5;exitDx=0;exitDy=0;entryX=0.5;entryY=0;entryDx=0;entryDy=0;" edge="1" parent="1" source="bfQukeVcYXhppwxrfOuq-2" target="bfQukeVcYXhppwxrfOuq-7">
          <mxGeometry relative="1" as="geometry" />
        </mxCell>
        <mxCell id="bfQukeVcYXhppwxrfOuq-2" value="Page login" style="rhombus;whiteSpace=wrap;html=1;" vertex="1" parent="1">
          <mxGeometry x="420" y="255" width="136" height="80" as="geometry" />
        </mxCell>
        <mxCell id="bfQukeVcYXhppwxrfOuq-10" style="edgeStyle=orthogonalEdgeStyle;rounded=0;orthogonalLoop=1;jettySize=auto;html=1;exitX=1;exitY=0.5;exitDx=0;exitDy=0;entryX=0;entryY=0.5;entryDx=0;entryDy=0;" edge="1" parent="1" source="bfQukeVcYXhppwxrfOuq-6" target="bfQukeVcYXhppwxrfOuq-9">
          <mxGeometry relative="1" as="geometry" />
        </mxCell>
        <mxCell id="bfQukeVcYXhppwxrfOuq-13" style="edgeStyle=orthogonalEdgeStyle;rounded=0;orthogonalLoop=1;jettySize=auto;html=1;exitX=0.5;exitY=1;exitDx=0;exitDy=0;entryX=0.5;entryY=0;entryDx=0;entryDy=0;" edge="1" parent="1" source="bfQukeVcYXhppwxrfOuq-6" target="bfQukeVcYXhppwxrfOuq-12">
          <mxGeometry relative="1" as="geometry" />
        </mxCell>
        <mxCell id="bfQukeVcYXhppwxrfOuq-6" value="Token existe" style="rhombus;whiteSpace=wrap;html=1;" vertex="1" parent="1">
          <mxGeometry x="530" y="365" width="121" height="80" as="geometry" />
        </mxCell>
        <mxCell id="bfQukeVcYXhppwxrfOuq-15" style="edgeStyle=orthogonalEdgeStyle;rounded=0;orthogonalLoop=1;jettySize=auto;html=1;exitX=0.5;exitY=1;exitDx=0;exitDy=0;entryX=0.5;entryY=0;entryDx=0;entryDy=0;" edge="1" parent="1" source="bfQukeVcYXhppwxrfOuq-7" target="bfQukeVcYXhppwxrfOuq-14">
          <mxGeometry relative="1" as="geometry" />
        </mxCell>
        <mxCell id="bfQukeVcYXhppwxrfOuq-16" style="edgeStyle=orthogonalEdgeStyle;rounded=0;orthogonalLoop=1;jettySize=auto;html=1;exitX=0;exitY=0.5;exitDx=0;exitDy=0;entryX=0.5;entryY=0;entryDx=0;entryDy=0;" edge="1" parent="1" source="bfQukeVcYXhppwxrfOuq-7" target="bfQukeVcYXhppwxrfOuq-17">
          <mxGeometry relative="1" as="geometry">
            <mxPoint x="80" y="615" as="targetPoint" />
          </mxGeometry>
        </mxCell>
        <mxCell id="bfQukeVcYXhppwxrfOuq-7" value="Token existe" style="rhombus;whiteSpace=wrap;html=1;" vertex="1" parent="1">
          <mxGeometry x="330" y="365" width="110" height="80" as="geometry" />
        </mxCell>
        <mxCell id="bfQukeVcYXhppwxrfOuq-11" style="edgeStyle=orthogonalEdgeStyle;rounded=0;orthogonalLoop=1;jettySize=auto;html=1;exitX=0.5;exitY=0;exitDx=0;exitDy=0;" edge="1" parent="1">
          <mxGeometry relative="1" as="geometry">
            <mxPoint x="490" y="225" as="targetPoint" />
            <mxPoint x="771" y="375" as="sourcePoint" />
            <Array as="points">
              <mxPoint x="771" y="385" />
              <mxPoint x="770" y="385" />
              <mxPoint x="770" y="225" />
            </Array>
          </mxGeometry>
        </mxCell>
        <mxCell id="bfQukeVcYXhppwxrfOuq-9" value="Redirection login" style="rounded=0;whiteSpace=wrap;html=1;" vertex="1" parent="1">
          <mxGeometry x="720" y="385" width="101" height="40" as="geometry" />
        </mxCell>
        <mxCell id="bfQukeVcYXhppwxrfOuq-30" style="edgeStyle=orthogonalEdgeStyle;rounded=0;orthogonalLoop=1;jettySize=auto;html=1;exitX=0.5;exitY=1;exitDx=0;exitDy=0;entryX=0.5;entryY=0;entryDx=0;entryDy=0;" edge="1" parent="1" source="bfQukeVcYXhppwxrfOuq-12" target="bfQukeVcYXhppwxrfOuq-29">
          <mxGeometry relative="1" as="geometry" />
        </mxCell>
        <mxCell id="bfQukeVcYXhppwxrfOuq-12" value="Envoi demande de vérification des droits au servlet" style="rounded=0;whiteSpace=wrap;html=1;" vertex="1" parent="1">
          <mxGeometry x="500.5" y="485" width="180" height="50" as="geometry" />
        </mxCell>
        <mxCell id="bfQukeVcYXhppwxrfOuq-25" style="edgeStyle=orthogonalEdgeStyle;rounded=0;orthogonalLoop=1;jettySize=auto;html=1;exitX=0.5;exitY=1;exitDx=0;exitDy=0;entryX=0.5;entryY=0;entryDx=0;entryDy=0;" edge="1" parent="1" source="bfQukeVcYXhppwxrfOuq-14" target="bfQukeVcYXhppwxrfOuq-26">
          <mxGeometry relative="1" as="geometry">
            <mxPoint x="320" y="575" as="targetPoint" />
          </mxGeometry>
        </mxCell>
        <mxCell id="bfQukeVcYXhppwxrfOuq-14" value="Envoi demande de vérification des droits au servlet" style="rounded=0;whiteSpace=wrap;html=1;" vertex="1" parent="1">
          <mxGeometry x="295" y="485" width="180" height="50" as="geometry" />
        </mxCell>
        <mxCell id="bfQukeVcYXhppwxrfOuq-19" style="edgeStyle=orthogonalEdgeStyle;rounded=0;orthogonalLoop=1;jettySize=auto;html=1;exitX=0.5;exitY=1;exitDx=0;exitDy=0;entryX=0.5;entryY=0;entryDx=0;entryDy=0;" edge="1" parent="1" source="bfQukeVcYXhppwxrfOuq-17" target="bfQukeVcYXhppwxrfOuq-18">
          <mxGeometry relative="1" as="geometry" />
        </mxCell>
        <mxCell id="bfQukeVcYXhppwxrfOuq-17" value="Demande login + MDP et envoi au servlet" style="rounded=0;whiteSpace=wrap;html=1;" vertex="1" parent="1">
          <mxGeometry x="10" y="485" width="150" height="40" as="geometry" />
        </mxCell>
        <mxCell id="bfQukeVcYXhppwxrfOuq-20" style="edgeStyle=orthogonalEdgeStyle;rounded=0;orthogonalLoop=1;jettySize=auto;html=1;exitX=1;exitY=0.5;exitDx=0;exitDy=0;" edge="1" parent="1" source="bfQukeVcYXhppwxrfOuq-18">
          <mxGeometry relative="1" as="geometry">
            <mxPoint x="90" y="445" as="targetPoint" />
            <Array as="points">
              <mxPoint x="230" y="615" />
              <mxPoint x="230" y="445" />
            </Array>
          </mxGeometry>
        </mxCell>
        <mxCell id="bfQukeVcYXhppwxrfOuq-22" style="edgeStyle=orthogonalEdgeStyle;rounded=0;orthogonalLoop=1;jettySize=auto;html=1;exitX=0.5;exitY=1;exitDx=0;exitDy=0;entryX=0.5;entryY=0;entryDx=0;entryDy=0;" edge="1" parent="1" source="bfQukeVcYXhppwxrfOuq-18" target="bfQukeVcYXhppwxrfOuq-21">
          <mxGeometry relative="1" as="geometry" />
        </mxCell>
        <mxCell id="bfQukeVcYXhppwxrfOuq-18" value="Informations correctes" style="rhombus;whiteSpace=wrap;html=1;" vertex="1" parent="1">
          <mxGeometry x="5" y="575" width="160" height="80" as="geometry" />
        </mxCell>
        <mxCell id="bfQukeVcYXhppwxrfOuq-36" style="edgeStyle=orthogonalEdgeStyle;rounded=0;orthogonalLoop=1;jettySize=auto;html=1;exitX=0.5;exitY=1;exitDx=0;exitDy=0;entryX=0.5;entryY=0;entryDx=0;entryDy=0;" edge="1" parent="1" source="bfQukeVcYXhppwxrfOuq-21" target="bfQukeVcYXhppwxrfOuq-35">
          <mxGeometry relative="1" as="geometry" />
        </mxCell>
        <mxCell id="bfQukeVcYXhppwxrfOuq-21" value="Envoi des droits et du token par le servlet" style="rounded=0;whiteSpace=wrap;html=1;" vertex="1" parent="1">
          <mxGeometry x="17.5" y="684.5" width="135" height="50" as="geometry" />
        </mxCell>
        <mxCell id="bfQukeVcYXhppwxrfOuq-45" style="edgeStyle=orthogonalEdgeStyle;rounded=0;orthogonalLoop=1;jettySize=auto;html=1;exitX=0.5;exitY=1;exitDx=0;exitDy=0;" edge="1" parent="1" source="bfQukeVcYXhppwxrfOuq-23">
          <mxGeometry relative="1" as="geometry">
            <mxPoint x="440" y="1055" as="targetPoint" />
            <Array as="points">
              <mxPoint x="240" y="975" />
              <mxPoint x="440" y="975" />
            </Array>
          </mxGeometry>
        </mxCell>
        <mxCell id="bfQukeVcYXhppwxrfOuq-23" value="Redirection sur la page par défaut selon les droits" style="rounded=0;whiteSpace=wrap;html=1;" vertex="1" parent="1">
          <mxGeometry x="89" y="865" width="310" height="40" as="geometry" />
        </mxCell>
        <mxCell id="bfQukeVcYXhppwxrfOuq-28" style="edgeStyle=orthogonalEdgeStyle;rounded=0;orthogonalLoop=1;jettySize=auto;html=1;exitX=0;exitY=0.5;exitDx=0;exitDy=0;" edge="1" parent="1" source="bfQukeVcYXhppwxrfOuq-26">
          <mxGeometry relative="1" as="geometry">
            <mxPoint x="250" y="415" as="targetPoint" />
            <Array as="points">
              <mxPoint x="250" y="615" />
              <mxPoint x="250" y="485" />
            </Array>
          </mxGeometry>
        </mxCell>
        <mxCell id="bfQukeVcYXhppwxrfOuq-34" style="edgeStyle=orthogonalEdgeStyle;rounded=0;orthogonalLoop=1;jettySize=auto;html=1;exitX=0.5;exitY=1;exitDx=0;exitDy=0;entryX=0.5;entryY=0;entryDx=0;entryDy=0;" edge="1" parent="1" source="bfQukeVcYXhppwxrfOuq-26" target="bfQukeVcYXhppwxrfOuq-33">
          <mxGeometry relative="1" as="geometry" />
        </mxCell>
        <mxCell id="bfQukeVcYXhppwxrfOuq-26" value="Informations correctes" style="rhombus;whiteSpace=wrap;html=1;" vertex="1" parent="1">
          <mxGeometry x="305" y="575" width="160" height="80" as="geometry" />
        </mxCell>
        <mxCell id="bfQukeVcYXhppwxrfOuq-31" style="edgeStyle=orthogonalEdgeStyle;rounded=0;orthogonalLoop=1;jettySize=auto;html=1;exitX=1;exitY=0.5;exitDx=0;exitDy=0;" edge="1" parent="1" source="bfQukeVcYXhppwxrfOuq-29">
          <mxGeometry relative="1" as="geometry">
            <mxPoint x="700" y="415" as="targetPoint" />
            <Array as="points">
              <mxPoint x="700" y="615" />
            </Array>
          </mxGeometry>
        </mxCell>
        <mxCell id="bfQukeVcYXhppwxrfOuq-40" style="edgeStyle=orthogonalEdgeStyle;rounded=0;orthogonalLoop=1;jettySize=auto;html=1;exitX=0.5;exitY=1;exitDx=0;exitDy=0;entryX=0.5;entryY=0;entryDx=0;entryDy=0;" edge="1" parent="1" source="bfQukeVcYXhppwxrfOuq-29" target="bfQukeVcYXhppwxrfOuq-39">
          <mxGeometry relative="1" as="geometry" />
        </mxCell>
        <mxCell id="bfQukeVcYXhppwxrfOuq-29" value="Informations correctes" style="rhombus;whiteSpace=wrap;html=1;" vertex="1" parent="1">
          <mxGeometry x="510.5" y="575" width="160" height="80" as="geometry" />
        </mxCell>
        <mxCell id="bfQukeVcYXhppwxrfOuq-47" style="edgeStyle=orthogonalEdgeStyle;rounded=0;orthogonalLoop=1;jettySize=auto;html=1;exitX=0.5;exitY=1;exitDx=0;exitDy=0;entryX=0.5;entryY=0;entryDx=0;entryDy=0;" edge="1" parent="1" source="bfQukeVcYXhppwxrfOuq-33" target="bfQukeVcYXhppwxrfOuq-23">
          <mxGeometry relative="1" as="geometry">
            <Array as="points">
              <mxPoint x="384" y="825" />
              <mxPoint x="244" y="825" />
            </Array>
          </mxGeometry>
        </mxCell>
        <mxCell id="bfQukeVcYXhppwxrfOuq-33" value="Envoi des droits" style="rounded=0;whiteSpace=wrap;html=1;" vertex="1" parent="1">
          <mxGeometry x="330" y="710" width="109" height="30" as="geometry" />
        </mxCell>
        <mxCell id="bfQukeVcYXhppwxrfOuq-46" style="edgeStyle=orthogonalEdgeStyle;rounded=0;orthogonalLoop=1;jettySize=auto;html=1;exitX=0.5;exitY=1;exitDx=0;exitDy=0;entryX=0.5;entryY=0;entryDx=0;entryDy=0;" edge="1" parent="1" source="bfQukeVcYXhppwxrfOuq-35" target="bfQukeVcYXhppwxrfOuq-23">
          <mxGeometry relative="1" as="geometry">
            <Array as="points">
              <mxPoint x="85" y="825" />
              <mxPoint x="244" y="825" />
            </Array>
          </mxGeometry>
        </mxCell>
        <mxCell id="bfQukeVcYXhppwxrfOuq-35" value="Stockage du token dans sessionStorage" style="rounded=0;whiteSpace=wrap;html=1;" vertex="1" parent="1">
          <mxGeometry x="13.75" y="755" width="142.5" height="50" as="geometry" />
        </mxCell>
        <mxCell id="bfQukeVcYXhppwxrfOuq-42" style="edgeStyle=orthogonalEdgeStyle;rounded=0;orthogonalLoop=1;jettySize=auto;html=1;exitX=1;exitY=0.5;exitDx=0;exitDy=0;entryX=0.5;entryY=0;entryDx=0;entryDy=0;" edge="1" parent="1" source="bfQukeVcYXhppwxrfOuq-39" target="bfQukeVcYXhppwxrfOuq-43">
          <mxGeometry relative="1" as="geometry">
            <mxPoint x="440" y="1125" as="targetPoint" />
            <Array as="points">
              <mxPoint x="800" y="725" />
              <mxPoint x="800" y="975" />
              <mxPoint x="440" y="975" />
            </Array>
          </mxGeometry>
        </mxCell>
        <mxCell id="bfQukeVcYXhppwxrfOuq-48" style="edgeStyle=orthogonalEdgeStyle;rounded=0;orthogonalLoop=1;jettySize=auto;html=1;exitX=0.5;exitY=1;exitDx=0;exitDy=0;entryX=0.5;entryY=0;entryDx=0;entryDy=0;" edge="1" parent="1" source="bfQukeVcYXhppwxrfOuq-39" target="bfQukeVcYXhppwxrfOuq-23">
          <mxGeometry relative="1" as="geometry">
            <Array as="points">
              <mxPoint x="590" y="825" />
              <mxPoint x="244" y="825" />
            </Array>
          </mxGeometry>
        </mxCell>
        <mxCell id="bfQukeVcYXhppwxrfOuq-39" value="l&#39;utilisateur a le droit d&#39;être sur cette page" style="rhombus;whiteSpace=wrap;html=1;" vertex="1" parent="1">
          <mxGeometry x="450.37" y="685" width="280.25" height="80" as="geometry" />
        </mxCell>
        <mxCell id="bfQukeVcYXhppwxrfOuq-43" value="Fin" style="ellipse;whiteSpace=wrap;html=1;" vertex="1" parent="1">
          <mxGeometry x="380.5" y="1055" width="120" height="40" as="geometry" />
        </mxCell>
        <mxCell id="bfQukeVcYXhppwxrfOuq-49" value="Vrai" style="text;html=1;align=center;verticalAlign=middle;whiteSpace=wrap;rounded=0;" vertex="1" parent="1">
          <mxGeometry x="373" y="271" width="60" height="30" as="geometry" />
        </mxCell>
        <mxCell id="bfQukeVcYXhppwxrfOuq-50" value="Vrai" style="text;html=1;align=center;verticalAlign=middle;whiteSpace=wrap;rounded=0;" vertex="1" parent="1">
          <mxGeometry x="373" y="445" width="60" height="30" as="geometry" />
        </mxCell>
        <mxCell id="bfQukeVcYXhppwxrfOuq-52" value="Vrai" style="text;html=1;align=center;verticalAlign=middle;whiteSpace=wrap;rounded=0;" vertex="1" parent="1">
          <mxGeometry x="373" y="655" width="60" height="30" as="geometry" />
        </mxCell>
        <mxCell id="bfQukeVcYXhppwxrfOuq-53" value="Vrai" style="text;html=1;align=center;verticalAlign=middle;whiteSpace=wrap;rounded=0;" vertex="1" parent="1">
          <mxGeometry x="75" y="650" width="60" height="30" as="geometry" />
        </mxCell>
        <mxCell id="bfQukeVcYXhppwxrfOuq-54" value="Vrai" style="text;html=1;align=center;verticalAlign=middle;whiteSpace=wrap;rounded=0;" vertex="1" parent="1">
          <mxGeometry x="580" y="445" width="60" height="30" as="geometry" />
        </mxCell>
        <mxCell id="bfQukeVcYXhppwxrfOuq-55" value="Vrai" style="text;html=1;align=center;verticalAlign=middle;whiteSpace=wrap;rounded=0;" vertex="1" parent="1">
          <mxGeometry x="580" y="654.5" width="60" height="30" as="geometry" />
        </mxCell>
        <mxCell id="bfQukeVcYXhppwxrfOuq-56" value="Vrai" style="text;html=1;align=center;verticalAlign=middle;whiteSpace=wrap;rounded=0;" vertex="1" parent="1">
          <mxGeometry x="720" y="696" width="60" height="30" as="geometry" />
        </mxCell>
        <mxCell id="bfQukeVcYXhppwxrfOuq-57" value="Faux" style="text;html=1;align=center;verticalAlign=middle;whiteSpace=wrap;rounded=0;" vertex="1" parent="1">
          <mxGeometry x="545" y="271" width="60" height="30" as="geometry" />
        </mxCell>
        <mxCell id="bfQukeVcYXhppwxrfOuq-58" value="Faux" style="text;html=1;align=center;verticalAlign=middle;whiteSpace=wrap;rounded=0;" vertex="1" parent="1">
          <mxGeometry x="640" y="380" width="60" height="30" as="geometry" />
        </mxCell>
        <mxCell id="bfQukeVcYXhppwxrfOuq-59" value="Faux" style="text;html=1;align=center;verticalAlign=middle;whiteSpace=wrap;rounded=0;" vertex="1" parent="1">
          <mxGeometry x="655" y="589" width="60" height="30" as="geometry" />
        </mxCell>
        <mxCell id="bfQukeVcYXhppwxrfOuq-60" value="Faux" style="text;html=1;align=center;verticalAlign=middle;whiteSpace=wrap;rounded=0;" vertex="1" parent="1">
          <mxGeometry x="580" y="765" width="60" height="30" as="geometry" />
        </mxCell>
        <mxCell id="bfQukeVcYXhppwxrfOuq-61" value="Faux" style="text;html=1;align=center;verticalAlign=middle;whiteSpace=wrap;rounded=0;" vertex="1" parent="1">
          <mxGeometry x="280" y="380" width="60" height="30" as="geometry" />
        </mxCell>
        <mxCell id="bfQukeVcYXhppwxrfOuq-62" value="Faux" style="text;html=1;align=center;verticalAlign=middle;whiteSpace=wrap;rounded=0;" vertex="1" parent="1">
          <mxGeometry x="250" y="589" width="60" height="30" as="geometry" />
        </mxCell>
        <mxCell id="bfQukeVcYXhppwxrfOuq-63" value="Faux" style="text;html=1;align=center;verticalAlign=middle;whiteSpace=wrap;rounded=0;" vertex="1" parent="1">
          <mxGeometry x="150" y="589" width="60" height="30" as="geometry" />
        </mxCell>
        <mxCell id="bfQukeVcYXhppwxrfOuq-64" value="&lt;font style=&quot;font-size: 16px;&quot;&gt;Ordinogramme script JS authentification&lt;/font&gt;" style="rounded=0;whiteSpace=wrap;html=1;" vertex="1" parent="1">
          <mxGeometry x="239" y="20" width="350" height="50" as="geometry" />
        </mxCell>
        <mxCell id="bfQukeVcYXhppwxrfOuq-65" value="&lt;div align=&quot;center&quot;&gt;Auteur : Maxime VALLET&lt;/div&gt;&lt;div align=&quot;center&quot;&gt;Version : 1.0&lt;br&gt;&lt;/div&gt;" style="rounded=0;whiteSpace=wrap;html=1;align=center;" vertex="1" parent="1">
          <mxGeometry x="10" y="1110" width="180" height="50" as="geometry" />
        </mxCell>
      </root>
    </mxGraphModel>
  </diagram>
</mxfile>
